<svg xmlns="http://www.w3.org/2000/svg" width="25.031" height="22" viewBox="0 0 25.031 22"><defs><style>.a{fill:#fff;}</style></defs><g transform="translate(0 0)"><path class="a" d="M8.065,14.667h13.3a.733.733,0,0,0,.705-.532L25,3.868a.733.733,0,0,0-.705-.935H6.373L5.849.574A.733.733,0,0,0,5.133,0H.733a.733.733,0,1,0,0,1.467H4.545L7.193,13.381A2.2,2.2,0,0,0,8.066,17.6h13.3a.733.733,0,1,0,0-1.467H8.066a.733.733,0,0,1,0-1.466ZM23.325,4.4l-2.514,8.8H8.655L6.7,4.4Zm0,0"/><path class="a" d="M150,362.2a2.2,2.2,0,1,0,2.2-2.2A2.2,2.2,0,0,0,150,362.2Zm2.2-.733a.733.733,0,1,1-.733.733A.734.734,0,0,1,152.2,361.467Zm0,0" transform="translate(-142.667 -342.4)"/><path class="a" d="M362,362.2a2.2,2.2,0,1,0,2.2-2.2A2.2,2.2,0,0,0,362,362.2Zm2.2-.733a.733.733,0,1,1-.733.733A.734.734,0,0,1,364.2,361.467Zm0,0" transform="translate(-344.302 -342.4)"/></g></svg>
