<svg xmlns="http://www.w3.org/2000/svg" width="11.434" height="14" viewBox="0 0 11.434 14"><defs><style>.a{fill:#fff;}</style></defs><g transform="translate(0 0)"><path class="a" d="M11.4,3.129,11.089,2.2a.862.862,0,0,0-.819-.59h-2.6V.766A.767.767,0,0,0,6.906,0H4.527a.767.767,0,0,0-.766.767v.846h-2.6a.862.862,0,0,0-.819.59l-.309.927a.694.694,0,0,0,.658.913h.323l.711,8.794A1.272,1.272,0,0,0,2.988,14h5.6A1.272,1.272,0,0,0,9.85,12.835l.711-8.794h.179a.694.694,0,0,0,.658-.913ZM4.581.82H6.852v.792H4.581ZM9.033,12.769a.447.447,0,0,1-.443.41h-5.6a.447.447,0,0,1-.443-.41L1.839,4.042h7.9ZM.869,3.222l.253-.76a.043.043,0,0,1,.041-.029H10.27a.043.043,0,0,1,.041.029l.253.76Zm0,0" transform="translate(0)"/><path class="a" d="M268.685,173.79h.022a.41.41,0,0,0,.409-.389l.385-7.393a.41.41,0,1,0-.819-.043l-.385,7.393A.41.41,0,0,0,268.685,173.79Zm0,0" transform="translate(-260.961 -161.049)"/><path class="a" d="M106.2,173.405a.41.41,0,0,0,.409.388h.023a.41.41,0,0,0,.387-.432l-.4-7.393a.41.41,0,1,0-.819.045Zm0,0" transform="translate(-102.901 -161.052)"/><path class="a" d="M194.664,173.793a.41.41,0,0,0,.41-.41v-7.393a.41.41,0,1,0-.82,0v7.393A.41.41,0,0,0,194.664,173.793Zm0,0" transform="translate(-188.943 -161.052)"/></g></svg>
