<svg xmlns="http://www.w3.org/2000/svg" width="17.867" height="17.867" viewBox="0 0 17.867 17.867"><defs><style>.a{fill:#122d5e;}</style></defs><path class="a" d="M15.953,1.914H14.038V.638a.638.638,0,1,0-1.276,0V1.914H5.1V.638a.638.638,0,1,0-1.276,0V1.914H1.914A1.914,1.914,0,0,0,0,3.829V15.953a1.914,1.914,0,0,0,1.914,1.914H15.953a1.914,1.914,0,0,0,1.914-1.914V3.829A1.914,1.914,0,0,0,15.953,1.914Zm.638,14.038a.638.638,0,0,1-.638.638H1.914a.638.638,0,0,1-.638-.638v-8.3H16.591Zm0-9.572H1.276V3.829a.638.638,0,0,1,.638-.638H3.829V4.467a.638.638,0,1,0,1.276,0V3.191h7.657V4.467a.638.638,0,1,0,1.276,0V3.191h1.914a.638.638,0,0,1,.638.638V6.381Z"/><g transform="translate(3.191 8.933)"><path class="a" d="M87.247,238.933H85.971a.638.638,0,1,0,0,1.276h1.276a.638.638,0,1,0,0-1.276Z" transform="translate(-85.333 -238.933)"/></g><g transform="translate(7.657 8.933)"><path class="a" d="M206.714,238.933h-1.276a.638.638,0,1,0,0,1.276h1.276a.638.638,0,1,0,0-1.276Z" transform="translate(-204.8 -238.933)"/></g><g transform="translate(12.124 8.933)"><path class="a" d="M326.181,238.933h-1.276a.638.638,0,1,0,0,1.276h1.276a.638.638,0,1,0,0-1.276Z" transform="translate(-324.267 -238.933)"/></g><g transform="translate(3.191 11.486)"><path class="a" d="M87.247,307.2H85.971a.638.638,0,0,0,0,1.276h1.276a.638.638,0,0,0,0-1.276Z" transform="translate(-85.333 -307.2)"/></g><g transform="translate(7.657 11.486)"><path class="a" d="M206.714,307.2h-1.276a.638.638,0,0,0,0,1.276h1.276a.638.638,0,1,0,0-1.276Z" transform="translate(-204.8 -307.2)"/></g><g transform="translate(12.124 11.486)"><path class="a" d="M326.181,307.2h-1.276a.638.638,0,0,0,0,1.276h1.276a.638.638,0,0,0,0-1.276Z" transform="translate(-324.267 -307.2)"/></g><g transform="translate(3.191 14.038)"><path class="a" d="M87.247,375.467H85.971a.638.638,0,1,0,0,1.276h1.276a.638.638,0,1,0,0-1.276Z" transform="translate(-85.333 -375.467)"/></g><g transform="translate(7.657 14.038)"><path class="a" d="M206.714,375.467h-1.276a.638.638,0,1,0,0,1.276h1.276a.638.638,0,1,0,0-1.276Z" transform="translate(-204.8 -375.467)"/></g><g transform="translate(12.124 14.038)"><path class="a" d="M326.181,375.467h-1.276a.638.638,0,1,0,0,1.276h1.276a.638.638,0,1,0,0-1.276Z" transform="translate(-324.267 -375.467)"/></g></svg>